<?xml version="1.0" standalone="no"?><svg xmlns="http://www.w3.org/2000/svg" viewBox="0 0 1440 320"><path fill="#273036" fill-opacity="1" d="M0,32L26.7,58.7C53.3,85,107,139,160,154.7C213.3,171,267,149,320,165.3C373.3,181,427,235,480,261.3C533.3,288,587,288,640,272C693.3,256,747,224,800,186.7C853.3,149,907,107,960,101.3C1013.3,96,1067,128,1120,154.7C1173.3,181,1227,203,1280,197.3C1333.3,192,1387,160,1413,144L1440,128L1440,320L1413.3,320C1386.7,320,1333,320,1280,320C1226.7,320,1173,320,1120,320C1066.7,320,1013,320,960,320C906.7,320,853,320,800,320C746.7,320,693,320,640,320C586.7,320,533,320,480,320C426.7,320,373,320,320,320C266.7,320,213,320,160,320C106.7,320,53,320,27,320L0,320Z"></path></svg>